<svg viewBox="0 0 425 512" fill="rgb(255, 255, 0)" xmlns="http://www.w3.org/2000/svg"><path d="M317 48q21.5 0 40.5 8.25t33.25 22.5 22.5 33.25 8.25 40.5v209q0 21.5-8.25 40.75t-22.5 33.5-33.25 22.5-40.5 8.25H107.5q-21.5 0-40.5-8.25t-33.25-22.5-22.5-33.5T3 361.5v-209Q3 131 11.25 112t22.5-33.25T67 56.25 107.5 48H317zm30 276.5q10.5-21.5 10.5-57.5 0-41-23.5-69 4.5-14 4.5-29 0-20-9-38-19 0-32.5 6.5-15 7-32.5 21-11.5-2.5-23.5-4t-25-1.5q-28 0-53.5 6-19-14-33-21-13.5-7-33-7-9 18-9 38 0 7.5 1.25 14.75T92.5 198Q69 225 69 267q0 36 10.5 57.5 8.5 17.5 25 27.75T139 367q13 4 26.5 5.5 7.5 1 14 1.5t12 .5q5.5.5 11.5.5h28l14-.5q6.5-.5 13.75-1.5t15.75-2.5q17.5-3 29.5-8 13-5.5 24.5-15.25T347 324.5zm-73-79q21 0 32.5 14.5 12 14.5 12 35.5 0 15-5.5 26.25T299 340q-9 6.5-21 10-13 4-24.5 5.25t-26 1.25h-29q-14.5 0-25.75-1.25T148.5 350q-12-3.5-21-10-8.5-7-14.25-18.25t-5.75-26.25q0-21 12-35.5 11.5-14.5 32.5-14.5 4 0 12.5.75T186 249q6 1 12.75 1.5t14.25.5 14.25-.5 13.25-1.5q13-2 21.5-2.75t12-.75zm-104 77q8-9 9.25-20T177.5 281q-2-7-7.25-13t-12.75-6-12.5 6q-8 9-9.25 20t1.75 21.5q2.5 7 7.75 13t12.25 6 12.5-6zm111 0q8-9 9.25-20T288.5 281q-2-7-7.25-13t-12.75-6-12.5 6q-8 9-9.25 20t1.75 21.5q2.5 7 7.75 13t12.25 6 12.5-6z"/></svg>