<svg viewBox="0 0 425 512" fill="rgb(255, 255, 0)" xmlns="http://www.w3.org/2000/svg"><path d="M283 260q0-8.5-2.5-18.5h21v101q0 4-2.75 6.5t-6.75 2.5H127.5q-4 0-6.5-2.5t-2.5-6.5v-101H139q-2.5 10-2.5 18.5 0 15 5.75 28.5T158 311.75t23.5 15.5T210 333t28.5-5.75 23.25-15.5 15.5-23.25T283 260zm-73 45.5q-9.5 0-18-3.5t-14.75-9.75-9.75-14.5T164 260t3.5-18 9.75-14.75T192 217.5t18-3.5 17.75 3.5 14.5 9.75T252 242t3.5 18-3.5 17.75-9.75 14.5-14.5 9.75-17.75 3.5zm82-137q4 0 6.75 2.5t2.75 6.5V205q0 4-2.75 6.5T292 214h-27.5q-4 0-6.5-2.5t-2.5-6.5v-27.5q0-4 2.5-6.5t6.5-2.5H292zm24.5-118q21.5 0 40.75 8.25t33.5 22.5 22.5 33.25 8.25 40.5v209q0 21.5-8.25 40.75t-22.5 33.5-33.5 22.5T316.5 469h-209Q86 469 67 460.75t-33.25-22.5-22.5-33.5T3 364V155q0-21.5 8.25-40.5t22.5-33.25T67 58.75t40.5-8.25h209zm12.5 118q0-11.5-8-19.5t-19.5-8h-183q-11.5 0-19.5 8t-8 19.5v183q0 11.5 8 19.5t19.5 8h183q11.5 0 19.5-8t8-19.5v-183z"/></svg>