<svg viewBox="0 0 425 512" fill="#2c37ff" xmlns="http://www.w3.org/2000/svg">
  <path
    d="M317 51q21.5 0 40.5 8.25t33.25 22.5 22.5 33.25 8.25 40.5v209q0 21.5-8.25 40.75t-22.5 33.5-33.25 22.5-40.5 8.25H107.5q-21.5 0-40.5-8.25t-33.25-22.5-22.5-33.5T3 364.5v-209Q3 134 11.25 115t22.5-33.25T67 59.25 107.5 51H317zM147 208H94.5v170H147V208zm-26-13.5q10.5 0 18.25-7.5t7.75-18.5-7.75-18.5-18.25-7.5q-11 0-18.75 7.5t-7.75 18.5 7.75 18.5 18.75 7.5zm209 85q0-18-10-35.25T294 218q-14.5-8-33.75-8.5T225.5 216v-8H173v170h52.5V274l21.5-10.5q4-2 11-2t10.5 2.5q3 1.5 6 6.5t3 9V378H330v-98.5z" />
</svg>