<svg viewBox="0 0 425 512" fill="rgb(255, 255, 0)" xmlns="http://www.w3.org/2000/svg"><path d="M317 51q21.5 0 40.5 8.25t33.25 22.5 22.5 33.25 8.25 40.5v209q0 21.5-8.25 40.75t-22.5 33.5-33.25 22.5-40.5 8.25H107.5q-21.5 0-40.5-8.25t-33.25-22.5-22.5-33.5T3 364.5v-209Q3 134 11.25 115t22.5-33.25T67 59.25 107.5 51H317zM212.5 359.5q24 0 45.5-8t37.5-21.75 25.25-32.5T330 257.5t-9.25-39.75-25.25-32.5T258 163.5t-45.5-8q-24.5 0-46 8T129 185.25t-25.25 32.5-9.25 39.75q0 25.5 13.25 47t35.25 36q-1.5 9-9 15.25T116 363q8 1.5 17 1.5 24 0 39.5-11 18.5 6 40 6z"/></svg>