<svg viewBox="0 0 425 512" fill="rgb(255, 255, 0)" xmlns="http://www.w3.org/2000/svg"><path d="M212.5 142.5q24 0 45.5 9.25T295.5 177t25.25 37.25T330 260t-9.25 46-25.25 37.5-37.5 25.25-45.5 9.25q-24.5 0-46-9.25T129 343.5 103.75 306t-9.25-46 9.25-45.75T129 177t37.5-25.25 46-9.25zm65 130.5h-39v-91.5H186V273h-39l65.5 65.5zM317 51q21.5 0 40.5 8.25t33.25 22.5 22.5 33.25 8.25 40.5v209q0 21.5-8.25 40.75t-22.5 33.5-33.25 22.5-40.5 8.25H107.5q-21.5 0-40.5-8.25t-33.25-22.5-22.5-33.5T3 364.5v-209Q3 134 11.25 115t22.5-33.25T67 59.25 107.5 51H317zM212.5 391q27 0 50.75-10.25t41.5-28 28-41.75T343 260t-10.25-50.75-28-41.5-41.5-28-50.75-10.25-51 10.25-41.75 28-28 41.5T81.5 260t10.25 51 28 41.75 41.75 28 51 10.25z"/></svg>